# xmcd
#
# Track frame offsets:
#	150
#	20127
#	44901
#	67386
#	86173
#	109121
#	138529
#	162255
#	184315
#	210418
#
# Disc length: 3112 seconds
#
# Revision: 1
# Processed by: cddbd v1.5.2PL0 Copyright (c) Steve Scherf et al.
# Submitted via: audiograbber 1.83.01
#
DISCID=9e0c260a
DTITLE=Dan Klarskov - Blues at Dexter
DYEAR=2006
DGENRE=Blues
TTITLE0=Wee Wee Baby
TTITLE1=Mister Loving Good
TTITLE2=What is Wrong with You
TTITLE3=Lonesome Woman Blues
TTITLE4=The Blues is a Feeling
TTITLE5=Whoo Wee
TTITLE6=Last Two Dollars
TTITLE7=Strolling with Bone
TTITLE8=Jealous Woman
TTITLE9=T-Bone Shuffle
EXTD=more info at www.klarskov.net
EXTT0=
EXTT1=
EXTT2=
EXTT3=
EXTT4=
EXTT5=
EXTT6=
EXTT7=
EXTT8=
EXTT9=
PLAYORDER=
